<mxfile host="Electron" agent="Mozilla/5.0 (Windows NT 10.0; Win64; x64) AppleWebKit/537.36 (KHTML, like Gecko) draw.io/28.2.8 Chrome/140.0.7339.240 Electron/38.4.0 Safari/537.36" version="28.2.8">
  <diagram name="Page-1" id="iHmqsS2dwv-jzwkVbi2U">
    <mxGraphModel dx="1426" dy="841" grid="1" gridSize="10" guides="1" tooltips="1" connect="1" arrows="1" fold="1" page="1" pageScale="1" pageWidth="850" pageHeight="1100" math="0" shadow="0">
      <root>
        <mxCell id="0" />
        <mxCell id="1" parent="0" />
        <mxCell id="ECszZfddC96sd282_9O_-1" value="Actor" style="shape=umlActor;verticalLabelPosition=bottom;verticalAlign=top;html=1;outlineConnect=0;" vertex="1" parent="1">
          <mxGeometry x="200" y="295" width="30" height="60" as="geometry" />
        </mxCell>
        <mxCell id="ECszZfddC96sd282_9O_-17" style="rounded=0;orthogonalLoop=1;jettySize=auto;html=1;entryX=1;entryY=0;entryDx=0;entryDy=0;" edge="1" parent="1" source="ECszZfddC96sd282_9O_-2" target="ECszZfddC96sd282_9O_-5">
          <mxGeometry relative="1" as="geometry" />
        </mxCell>
        <mxCell id="ECszZfddC96sd282_9O_-2" value="Actor" style="shape=umlActor;verticalLabelPosition=bottom;verticalAlign=top;html=1;outlineConnect=0;" vertex="1" parent="1">
          <mxGeometry x="500" y="300" width="30" height="60" as="geometry" />
        </mxCell>
        <mxCell id="ECszZfddC96sd282_9O_-3" value="NV thu viện" style="text;html=1;whiteSpace=wrap;strokeColor=none;fillColor=none;align=center;verticalAlign=middle;rounded=0;" vertex="1" parent="1">
          <mxGeometry x="220" y="315" width="60" height="30" as="geometry" />
        </mxCell>
        <mxCell id="ECszZfddC96sd282_9O_-4" value="Độc giả" style="text;html=1;whiteSpace=wrap;strokeColor=none;fillColor=none;align=center;verticalAlign=middle;rounded=0;" vertex="1" parent="1">
          <mxGeometry x="550" y="310" width="60" height="30" as="geometry" />
        </mxCell>
        <mxCell id="ECszZfddC96sd282_9O_-5" value="Đăng nhập" style="ellipse;whiteSpace=wrap;html=1;" vertex="1" parent="1">
          <mxGeometry x="320" y="430" width="120" height="80" as="geometry" />
        </mxCell>
        <mxCell id="ECszZfddC96sd282_9O_-10" value="" style="edgeStyle=orthogonalEdgeStyle;rounded=0;orthogonalLoop=1;jettySize=auto;html=1;" edge="1" parent="1" source="ECszZfddC96sd282_9O_-6" target="ECszZfddC96sd282_9O_-5">
          <mxGeometry relative="1" as="geometry" />
        </mxCell>
        <mxCell id="ECszZfddC96sd282_9O_-6" value="Trả sách" style="ellipse;whiteSpace=wrap;html=1;" vertex="1" parent="1">
          <mxGeometry x="320" y="600" width="120" height="80" as="geometry" />
        </mxCell>
        <mxCell id="ECszZfddC96sd282_9O_-7" value="tìm sách" style="ellipse;whiteSpace=wrap;html=1;" vertex="1" parent="1">
          <mxGeometry x="500" y="600" width="120" height="80" as="geometry" />
        </mxCell>
        <mxCell id="ECszZfddC96sd282_9O_-8" value="Mượn sách" style="ellipse;whiteSpace=wrap;html=1;" vertex="1" parent="1">
          <mxGeometry x="125" y="600" width="120" height="80" as="geometry" />
        </mxCell>
        <mxCell id="ECszZfddC96sd282_9O_-9" style="rounded=0;orthogonalLoop=1;jettySize=auto;html=1;entryX=0;entryY=0.625;entryDx=0;entryDy=0;entryPerimeter=0;" edge="1" parent="1" source="ECszZfddC96sd282_9O_-8" target="ECszZfddC96sd282_9O_-5">
          <mxGeometry relative="1" as="geometry" />
        </mxCell>
        <mxCell id="ECszZfddC96sd282_9O_-11" style="rounded=0;orthogonalLoop=1;jettySize=auto;html=1;entryX=1;entryY=0.65;entryDx=0;entryDy=0;entryPerimeter=0;" edge="1" parent="1" source="ECszZfddC96sd282_9O_-7" target="ECszZfddC96sd282_9O_-5">
          <mxGeometry relative="1" as="geometry" />
        </mxCell>
        <mxCell id="ECszZfddC96sd282_9O_-12" value="include" style="text;html=1;whiteSpace=wrap;strokeColor=none;fillColor=none;align=center;verticalAlign=middle;rounded=0;" vertex="1" parent="1">
          <mxGeometry x="190" y="530" width="60" height="30" as="geometry" />
        </mxCell>
        <mxCell id="ECszZfddC96sd282_9O_-13" value="include" style="text;html=1;whiteSpace=wrap;strokeColor=none;fillColor=none;align=center;verticalAlign=middle;rounded=0;" vertex="1" parent="1">
          <mxGeometry x="320" y="530" width="60" height="30" as="geometry" />
        </mxCell>
        <mxCell id="ECszZfddC96sd282_9O_-14" value="include" style="text;html=1;whiteSpace=wrap;strokeColor=none;fillColor=none;align=center;verticalAlign=middle;rounded=0;" vertex="1" parent="1">
          <mxGeometry x="500" y="530" width="60" height="30" as="geometry" />
        </mxCell>
        <mxCell id="ECszZfddC96sd282_9O_-16" style="rounded=0;orthogonalLoop=1;jettySize=auto;html=1;entryX=0.1;entryY=0.25;entryDx=0;entryDy=0;entryPerimeter=0;" edge="1" parent="1" source="ECszZfddC96sd282_9O_-1" target="ECszZfddC96sd282_9O_-5">
          <mxGeometry relative="1" as="geometry" />
        </mxCell>
      </root>
    </mxGraphModel>
  </diagram>
</mxfile>
